<svg xmlns="http://www.w3.org/2000/svg" viewBox="0 0 400 300" fill="none">
  <defs>
    <linearGradient id="shieldGrad" x1="50%" y1="0%" x2="50%" y2="100%">
      <stop offset="0%" style="stop-color:#00FFA3"/>
      <stop offset="100%" style="stop-color:#00B894"/>
    </linearGradient>
    <linearGradient id="bgDark" x1="0%" y1="0%" x2="100%" y2="100%">
      <stop offset="0%" style="stop-color:#0f172a"/>
      <stop offset="100%" style="stop-color:#1e293b"/>
    </linearGradient>
  </defs>
  
  <!-- Background -->
  <rect width="400" height="300" fill="url(#bgDark)"/>
  
  <!-- Grid pattern -->
  <g opacity="0.05">
    <path d="M0 50 L400 50" stroke="#fff" stroke-width="1"/>
    <path d="M0 100 L400 100" stroke="#fff" stroke-width="1"/>
    <path d="M0 150 L400 150" stroke="#fff" stroke-width="1"/>
    <path d="M0 200 L400 200" stroke="#fff" stroke-width="1"/>
    <path d="M0 250 L400 250" stroke="#fff" stroke-width="1"/>
    <path d="M50 0 L50 300" stroke="#fff" stroke-width="1"/>
    <path d="M100 0 L100 300" stroke="#fff" stroke-width="1"/>
    <path d="M150 0 L150 300" stroke="#fff" stroke-width="1"/>
    <path d="M200 0 L200 300" stroke="#fff" stroke-width="1"/>
    <path d="M250 0 L250 300" stroke="#fff" stroke-width="1"/>
    <path d="M300 0 L300 300" stroke="#fff" stroke-width="1"/>
    <path d="M350 0 L350 300" stroke="#fff" stroke-width="1"/>
  </g>
  
  <!-- Central Shield -->
  <g transform="translate(150, 60)">
    <!-- Outer glow -->
    <ellipse cx="50" cy="90" rx="70" ry="50" fill="#00FFA3" opacity="0.1"/>
    
    <!-- Shield shape -->
    <path d="M50 0 L95 20 L95 80 Q95 140 50 170 Q5 140 5 80 L5 20 Z" 
          fill="url(#shieldGrad)" 
          filter="drop-shadow(0 0 20px rgba(0,255,163,0.4))"/>
    
    <!-- Inner shield detail -->
    <path d="M50 15 L85 32 L85 78 Q85 125 50 150 Q15 125 15 78 L15 32 Z" 
          fill="none" stroke="#fff" stroke-width="2" opacity="0.3"/>
    
    <!-- Lock icon -->
    <g transform="translate(30, 55)">
      <rect x="5" y="20" width="30" height="25" rx="4" fill="#0a1628"/>
      <path d="M12 20 L12 12 Q12 5 20 5 Q28 5 28 12 L28 20" 
            fill="none" stroke="#0a1628" stroke-width="4" stroke-linecap="round"/>
      <circle cx="20" cy="32" r="4" fill="#00FFA3"/>
      <path d="M20 36 L20 40" stroke="#00FFA3" stroke-width="3" stroke-linecap="round"/>
    </g>
  </g>
  
  <!-- Data flow lines from shield -->
  <g opacity="0.6">
    <!-- Left connections -->
    <path d="M150 130 Q 100 130 60 100" stroke="#00FFA3" stroke-width="2" fill="none" stroke-dasharray="4,4"/>
    <path d="M150 150 Q 90 150 40 180" stroke="#00FFA3" stroke-width="2" fill="none" stroke-dasharray="4,4"/>
    
    <!-- Right connections -->
    <path d="M250 130 Q 300 130 340 100" stroke="#00FFA3" stroke-width="2" fill="none" stroke-dasharray="4,4"/>
    <path d="M250 150 Q 310 150 360 180" stroke="#00FFA3" stroke-width="2" fill="none" stroke-dasharray="4,4"/>
  </g>
  
  <!-- EU Server nodes -->
  <g transform="translate(20, 80)">
    <rect width="60" height="40" rx="6" fill="#1e293b" stroke="#00FFA3" stroke-width="1"/>
    <circle cx="12" cy="15" r="3" fill="#00FFA3"/>
    <rect x="20" y="12" width="30" height="3" rx="1" fill="#00FFA3" opacity="0.5"/>
    <circle cx="12" cy="25" r="3" fill="#00FFA3" opacity="0.5"/>
    <rect x="20" y="22" width="25" height="3" rx="1" fill="#00FFA3" opacity="0.3"/>
    <text x="30" y="38" text-anchor="middle" fill="#fff" font-size="6" font-family="system-ui">EU Server</text>
  </g>
  
  <g transform="translate(20, 170)">
    <rect width="60" height="40" rx="6" fill="#1e293b" stroke="#00FFA3" stroke-width="1"/>
    <circle cx="12" cy="15" r="3" fill="#00FFA3"/>
    <rect x="20" y="12" width="28" height="3" rx="1" fill="#00FFA3" opacity="0.5"/>
    <circle cx="12" cy="25" r="3" fill="#00FFA3" opacity="0.5"/>
    <rect x="20" y="22" width="32" height="3" rx="1" fill="#00FFA3" opacity="0.3"/>
    <text x="30" y="38" text-anchor="middle" fill="#fff" font-size="6" font-family="system-ui">Frankfurt</text>
  </g>
  
  <!-- Checkmarks -->
  <g transform="translate(320, 80)">
    <rect width="60" height="40" rx="6" fill="#00FFA3" opacity="0.15"/>
    <text x="30" y="22" text-anchor="middle" fill="#00FFA3" font-size="16">✓</text>
    <text x="30" y="35" text-anchor="middle" fill="#00FFA3" font-size="7" font-family="system-ui">ISO 27001</text>
  </g>
  
  <g transform="translate(320, 170)">
    <rect width="60" height="40" rx="6" fill="#00FFA3" opacity="0.15"/>
    <text x="30" y="22" text-anchor="middle" fill="#00FFA3" font-size="16">✓</text>
    <text x="30" y="35" text-anchor="middle" fill="#00FFA3" font-size="7" font-family="system-ui">TÜV geprüft</text>
  </g>
  
  <!-- DSGVO Text -->
  <text x="200" y="270" text-anchor="middle" fill="#fff" font-size="14" font-weight="600" font-family="system-ui" opacity="0.8">DSGVO-konform · Hosting in Deutschland</text>
</svg>

