<svg xmlns="http://www.w3.org/2000/svg" viewBox="0 0 400 300" fill="none">
  <defs>
    <linearGradient id="grad1" x1="0%" y1="0%" x2="100%" y2="100%">
      <stop offset="0%" style="stop-color:#0077FF;stop-opacity:0.2"/>
      <stop offset="100%" style="stop-color:#0066CC;stop-opacity:0.1"/>
    </linearGradient>
    <linearGradient id="neonGrad" x1="0%" y1="0%" x2="100%" y2="0%">
      <stop offset="0%" style="stop-color:#0077FF"/>
      <stop offset="100%" style="stop-color:#00D4FF"/>
    </linearGradient>
  </defs>
  
  <!-- Background -->
  <rect width="400" height="300" fill="url(#grad1)" rx="20"/>
  
  <!-- Chat bubbles representing lead qualification -->
  <g transform="translate(50, 60)">
    <!-- User bubble -->
    <rect x="0" y="0" width="120" height="40" rx="20" fill="#e8e6e3"/>
    <circle cx="-20" cy="20" r="15" fill="#0d7377"/>
    <text x="60" y="25" text-anchor="middle" fill="#44403c" font-size="12" font-family="system-ui">Interesse an...</text>
    
    <!-- AI Response -->
    <rect x="80" y="60" width="140" height="50" rx="20" fill="#0d7377"/>
    <text x="150" y="85" text-anchor="middle" fill="#fff" font-size="11" font-family="system-ui">Perfekt! Welche</text>
    <text x="150" y="100" text-anchor="middle" fill="#fff" font-size="11" font-family="system-ui">Branche sind Sie?</text>
    
    <!-- User response -->
    <rect x="0" y="130" width="100" height="40" rx="20" fill="#e8e6e3"/>
    <text x="50" y="155" text-anchor="middle" fill="#44403c" font-size="12" font-family="system-ui">Fertigung</text>
    
    <!-- AI qualification -->
    <rect x="60" y="190" width="160" height="50" rx="20" fill="url(#neonGrad)"/>
    <text x="140" y="212" text-anchor="middle" fill="#0a1628" font-size="11" font-weight="600" font-family="system-ui">✓ Lead qualifiziert!</text>
    <text x="140" y="228" text-anchor="middle" fill="#0a1628" font-size="10" font-family="system-ui">Termin wird gebucht...</text>
  </g>
  
  <!-- Stats indicator -->
  <g transform="translate(280, 80)">
    <rect width="90" height="100" rx="12" fill="#fff" filter="drop-shadow(0 4px 12px rgba(0,0,0,0.1))"/>
    <text x="45" y="35" text-anchor="middle" fill="#0077FF" font-size="28" font-weight="700" font-family="system-ui">+40%</text>
    <text x="45" y="55" text-anchor="middle" fill="#44403c" font-size="10" font-family="system-ui">Abschluss-</text>
    <text x="45" y="68" text-anchor="middle" fill="#44403c" font-size="10" font-family="system-ui">quote</text>
    <path d="M25 85 L35 78 L50 82 L65 72" stroke="#0077FF" stroke-width="2" fill="none" stroke-linecap="round"/>
  </g>
  
  <!-- Connection lines -->
  <path d="M220 160 Q 250 160 280 130" stroke="#0d7377" stroke-width="1" stroke-dasharray="4,4" fill="none" opacity="0.5"/>
</svg>

