<svg xmlns="http://www.w3.org/2000/svg" viewBox="0 0 400 300" fill="none">
  <defs>
    <linearGradient id="gradHR" x1="0%" y1="0%" x2="100%" y2="100%">
      <stop offset="0%" style="stop-color:#0d7377;stop-opacity:0.15"/>
      <stop offset="100%" style="stop-color:#00FFA3;stop-opacity:0.1"/>
    </linearGradient>
  </defs>
  
  <!-- Background -->
  <rect width="400" height="300" fill="url(#gradHR)" rx="20"/>
  
  <!-- Stack of applications -->
  <g transform="translate(40, 50)">
    <!-- Documents stack -->
    <rect x="0" y="20" width="80" height="100" rx="4" fill="#d4d1cc" transform="rotate(-5)"/>
    <rect x="5" y="15" width="80" height="100" rx="4" fill="#e8e6e3" transform="rotate(-2)"/>
    <rect x="10" y="10" width="80" height="100" rx="4" fill="#fff" filter="drop-shadow(0 2px 8px rgba(0,0,0,0.1))"/>
    <text x="50" y="40" text-anchor="middle" fill="#78716c" font-size="10" font-family="system-ui">Bewerbung</text>
    <rect x="20" y="50" width="60" height="4" rx="2" fill="#e8e6e3"/>
    <rect x="20" y="60" width="50" height="4" rx="2" fill="#e8e6e3"/>
    <rect x="20" y="70" width="55" height="4" rx="2" fill="#e8e6e3"/>
    <text x="50" y="95" text-anchor="middle" fill="#a8a29e" font-size="20" font-family="system-ui">×100</text>
  </g>
  
  <!-- AI Processing -->
  <g transform="translate(160, 100)">
    <circle cx="40" cy="40" r="35" fill="#0d7377"/>
    <text x="40" y="35" text-anchor="middle" fill="#fff" font-size="24">🤖</text>
    <text x="40" y="55" text-anchor="middle" fill="#00FFA3" font-size="10" font-weight="600" font-family="system-ui">Analyse</text>
    
    <!-- Processing animation dots -->
    <circle cx="90" cy="40" r="4" fill="#00FFA3" opacity="0.4"/>
    <circle cx="105" cy="40" r="4" fill="#00FFA3" opacity="0.6"/>
    <circle cx="120" cy="40" r="4" fill="#00FFA3" opacity="0.8"/>
  </g>
  
  <!-- Top candidates result -->
  <g transform="translate(280, 40)">
    <rect width="100" height="140" rx="12" fill="#fff" filter="drop-shadow(0 4px 16px rgba(0,0,0,0.12))"/>
    <text x="50" y="25" text-anchor="middle" fill="#0d7377" font-size="11" font-weight="600" font-family="system-ui">Top 10</text>
    
    <!-- Candidate cards -->
    <g transform="translate(10, 35)">
      <rect width="80" height="25" rx="6" fill="#00FFA3" opacity="0.2"/>
      <circle cx="15" cy="12" r="8" fill="#0d7377"/>
      <rect x="28" y="6" width="40" height="5" rx="2" fill="#0d7377"/>
      <text x="72" y="17" fill="#00FFA3" font-size="10" font-weight="600">★</text>
    </g>
    
    <g transform="translate(10, 65)">
      <rect width="80" height="25" rx="6" fill="#0d7377" opacity="0.1"/>
      <circle cx="15" cy="12" r="8" fill="#78716c"/>
      <rect x="28" y="6" width="35" height="5" rx="2" fill="#78716c"/>
      <text x="72" y="17" fill="#0d7377" font-size="10">★</text>
    </g>
    
    <g transform="translate(10, 95)">
      <rect width="80" height="25" rx="6" fill="#0d7377" opacity="0.1"/>
      <circle cx="15" cy="12" r="8" fill="#78716c"/>
      <rect x="28" y="6" width="38" height="5" rx="2" fill="#78716c"/>
      <text x="72" y="17" fill="#0d7377" font-size="10">★</text>
    </g>
  </g>
  
  <!-- Time saved indicator -->
  <g transform="translate(50, 200)">
    <rect width="100" height="60" rx="10" fill="#fff" filter="drop-shadow(0 2px 8px rgba(0,0,0,0.08))"/>
    <text x="50" y="28" text-anchor="middle" fill="#00FFA3" font-size="10" font-family="system-ui">⏱️</text>
    <text x="50" y="45" text-anchor="middle" fill="#0d7377" font-size="16" font-weight="700" font-family="system-ui">-8h/Woche</text>
  </g>
  
  <!-- Flow arrows -->
  <path d="M130 120 L155 120" stroke="#0d7377" stroke-width="2" marker-end="url(#arrow)"/>
  <path d="M240 120 L275 80" stroke="#0d7377" stroke-width="2" stroke-dasharray="4,4"/>
</svg>

