<svg xmlns="http://www.w3.org/2000/svg" viewBox="0 0 400 300" fill="none">
  <defs>
    <linearGradient id="gradFin" x1="0%" y1="100%" x2="100%" y2="0%">
      <stop offset="0%" style="stop-color:#0077FF;stop-opacity:0.1"/>
      <stop offset="100%" style="stop-color:#0066CC;stop-opacity:0.15"/>
    </linearGradient>
  </defs>
  
  <!-- Background -->
  <rect width="400" height="300" fill="url(#gradFin)" rx="20"/>
  
  <!-- Invoice document -->
  <g transform="translate(30, 40)">
    <rect width="120" height="160" rx="8" fill="#fff" filter="drop-shadow(0 4px 12px rgba(0,0,0,0.1))"/>
    <rect x="10" y="15" width="60" height="8" rx="2" fill="#0d7377"/>
    <text x="10" y="45" fill="#78716c" font-size="9" font-family="system-ui">Rechnung #4521</text>
    
    <!-- Line items -->
    <rect x="10" y="60" width="100" height="1" fill="#e8e6e3"/>
    <rect x="10" y="70" width="70" height="5" rx="1" fill="#e8e6e3"/>
    <text x="100" y="75" text-anchor="end" fill="#44403c" font-size="8" font-family="system-ui">€ 1.250</text>
    
    <rect x="10" y="85" width="65" height="5" rx="1" fill="#e8e6e3"/>
    <text x="100" y="90" text-anchor="end" fill="#44403c" font-size="8" font-family="system-ui">€ 890</text>
    
    <rect x="10" y="100" width="75" height="5" rx="1" fill="#e8e6e3"/>
    <text x="100" y="105" text-anchor="end" fill="#44403c" font-size="8" font-family="system-ui">€ 2.100</text>
    
    <rect x="10" y="120" width="100" height="1" fill="#0d7377"/>
    <text x="10" y="140" fill="#0d7377" font-size="10" font-weight="600" font-family="system-ui">Gesamt:</text>
    <text x="100" y="140" text-anchor="end" fill="#0d7377" font-size="10" font-weight="600" font-family="system-ui">€ 4.240</text>
  </g>
  
  <!-- AI Scanner effect -->
  <g transform="translate(30, 40)">
    <rect x="0" y="80" width="120" height="3" fill="#0077FF" opacity="0.6">
      <animate attributeName="y" values="20;180;20" dur="2s" repeatCount="indefinite"/>
      <animate attributeName="opacity" values="0.6;0.2;0.6" dur="2s" repeatCount="indefinite"/>
    </rect>
  </g>
  
  <!-- AI Processing center -->
  <g transform="translate(170, 90)">
    <circle cx="50" cy="50" r="45" fill="#0d7377" opacity="0.1"/>
    <circle cx="50" cy="50" r="35" fill="#0d7377"/>
    <text x="50" y="45" text-anchor="middle" fill="#fff" font-size="20">🤖</text>
    <text x="50" y="62" text-anchor="middle" fill="#0077FF" font-size="9" font-weight="600" font-family="system-ui">Prüfung</text>
    
    <!-- Checkmarks appearing -->
    <g transform="translate(70, -10)">
      <circle r="12" fill="#0077FF"/>
      <text x="0" y="4" text-anchor="middle" fill="#ffffff" font-size="12">✓</text>
    </g>
  </g>
  
  <!-- Validation results -->
  <g transform="translate(280, 50)">
    <rect width="100" height="170" rx="12" fill="#fff" filter="drop-shadow(0 4px 16px rgba(0,0,0,0.12))"/>
    <text x="50" y="25" text-anchor="middle" fill="#0d7377" font-size="11" font-weight="600" font-family="system-ui">Validierung</text>
    
    <!-- Check items -->
    <g transform="translate(12, 40)">
      <circle r="8" cx="10" cy="10" fill="#0077FF" opacity="0.2"/>
      <text x="10" y="14" text-anchor="middle" fill="#0077FF" font-size="10">✓</text>
      <text x="25" y="13" fill="#44403c" font-size="9" font-family="system-ui">Bestellung gefunden</text>
    </g>
    
    <g transform="translate(12, 65)">
      <circle r="8" cx="10" cy="10" fill="#0077FF" opacity="0.2"/>
      <text x="10" y="14" text-anchor="middle" fill="#0077FF" font-size="10">✓</text>
      <text x="25" y="13" fill="#44403c" font-size="9" font-family="system-ui">Betrag korrekt</text>
    </g>
    
    <g transform="translate(12, 90)">
      <circle r="8" cx="10" cy="10" fill="#0077FF" opacity="0.2"/>
      <text x="10" y="14" text-anchor="middle" fill="#0077FF" font-size="10">✓</text>
      <text x="25" y="13" fill="#44403c" font-size="9" font-family="system-ui">USt-ID gültig</text>
    </g>
    
    <g transform="translate(12, 115)">
      <circle r="8" cx="10" cy="10" fill="#0077FF" opacity="0.2"/>
      <text x="10" y="14" text-anchor="middle" fill="#0077FF" font-size="10">✓</text>
      <text x="25" y="13" fill="#44403c" font-size="9" font-family="system-ui">Auto-Buchung</text>
    </g>
    
    <!-- Result -->
    <rect x="10" y="135" width="80" height="25" rx="6" fill="#0077FF"/>
    <text x="50" y="152" text-anchor="middle" fill="#ffffff" font-size="10" font-weight="600" font-family="system-ui">0% Fehler</text>
  </g>
  
  <!-- Flow arrows -->
  <path d="M155 120 L165 120" stroke="#0d7377" stroke-width="2"/>
  <path d="M265 120 L275 80" stroke="#0d7377" stroke-width="2" stroke-dasharray="4,4"/>
</svg>

