<svg width="180" height="60" viewBox="0 0 180 60" fill="none" xmlns="http://www.w3.org/2000/svg">
  <!-- Left Hexagon -->
  <g>
    <path d="M15 30 L23 16 L39 16 L47 30 L39 44 L23 44 Z" stroke="white" stroke-width="2.5" fill="none"/>
    <line x1="10" y1="24" x2="20" y2="24" stroke="white" stroke-width="2"/>
    <circle cx="10" cy="24" r="2.5" fill="white"/>
    <line x1="10" y1="28" x2="18" y2="28" stroke="white" stroke-width="2"/>
    <circle cx="10" cy="28" r="2.5" fill="white"/>
    <line x1="10" y1="32" x2="20" y2="32" stroke="white" stroke-width="2"/>
    <circle cx="10" cy="32" r="2.5" fill="white"/>
    <line x1="10" y1="36" x2="18" y2="36" stroke="white" stroke-width="2"/>
    <circle cx="10" cy="36" r="2.5" fill="white"/>
  </g>
  
  <!-- Connection line left to center -->
  <line x1="47" y1="30" x2="63" y2="30" stroke="white" stroke-width="3"/>
  <circle cx="55" cy="30" r="3" fill="white"/>
  
  <!-- Center Hexagon -->
  <g>
    <path d="M70 30 L78 16 L94 16 L102 30 L94 44 L78 44 Z" stroke="white" stroke-width="2.5" fill="none"/>
    <rect x="80" y="23" width="14" height="14" stroke="white" stroke-width="2.5" fill="none"/>
    <line x1="80" y1="26" x2="76" y2="26" stroke="white" stroke-width="2"/>
    <line x1="80" y1="30" x2="76" y2="30" stroke="white" stroke-width="2"/>
    <line x1="80" y1="34" x2="76" y2="34" stroke="white" stroke-width="2"/>
    <line x1="94" y1="26" x2="98" y2="26" stroke="white" stroke-width="2"/>
    <line x1="94" y1="30" x2="98" y2="30" stroke="white" stroke-width="2"/>
    <line x1="94" y1="34" x2="98" y2="34" stroke="white" stroke-width="2"/>
    <circle cx="87" cy="30" r="2.5" fill="white"/>
  </g>
  
  <!-- Connection line center to right -->
  <line x1="102" y1="30" x2="118" y2="30" stroke="white" stroke-width="3"/>
  <circle cx="110" cy="30" r="3" fill="white"/>
  
  <!-- Right Hexagon -->
  <g>
    <path d="M125 30 L133 16 L149 16 L157 30 L149 44 L133 44 Z" stroke="white" stroke-width="2.5" fill="none"/>
    <line x1="152" y1="24" x2="162" y2="24" stroke="white" stroke-width="2"/>
    <circle cx="162" cy="24" r="2.5" fill="white"/>
    <line x1="154" y1="28" x2="162" y2="28" stroke="white" stroke-width="2"/>
    <circle cx="162" cy="28" r="2.5" fill="white"/>
    <line x1="152" y1="32" x2="162" y2="32" stroke="white" stroke-width="2"/>
    <circle cx="162" cy="32" r="2.5" fill="white"/>
    <line x1="154" y1="36" x2="162" y2="36" stroke="white" stroke-width="2"/>
    <circle cx="162" cy="36" r="2.5" fill="white"/>
  </g>
</svg>
