<svg xmlns="http://www.w3.org/2000/svg" xmlns:xlink="http://www.w3.org/1999/xlink" width="400" zoomAndPan="magnify" viewBox="0 0 300 74.999997" height="100" preserveAspectRatio="xMidYMid meet" version="1.0"><defs><g/><clipPath id="58d5288cd0"><path d="M 218 13 L 226.921875 13 L 226.921875 27 L 218 27 Z M 218 13 " clip-rule="nonzero"/></clipPath><clipPath id="1d1d42a57c"><rect x="0" width="227" y="0" height="34"/></clipPath><clipPath id="108ee92ac3"><path d="M 39 48 L 68.25 48 L 68.25 69 L 39 69 Z M 39 48 " clip-rule="nonzero"/></clipPath><clipPath id="7592f90519"><path d="M 7 0 L 68.25 0 L 68.25 27 L 7 27 Z M 7 0 " clip-rule="nonzero"/></clipPath></defs><g transform="matrix(1, 0, 0, 1, 21, 19)"><g clip-path="url(#1d1d42a57c)"><g fill="#ffffff" fill-opacity="1"><g transform="translate(0.569443, 26.071135)"><g><path d="M 2.15625 0 L 2.15625 -16.578125 L 5.4375 -16.578125 L 5.4375 -9.8125 L 5.796875 -9.8125 L 11.328125 -16.578125 L 14.6875 -16.578125 L 14.6875 -16.296875 L 8.578125 -8.75 L 15.3125 -0.28125 L 15.3125 0 L 11.609375 0 L 5.796875 -7.15625 L 5.4375 -7.15625 L 5.4375 0 Z M 2.15625 0 "/></g></g></g><g fill="#ffffff" fill-opacity="1"><g transform="translate(15.886368, 26.071135)"><g><path d="M 5.4375 0 L 2.15625 0 L 2.15625 -16.578125 L 5.4375 -16.578125 Z M 5.4375 0 "/></g></g></g><g fill="#ffffff" fill-opacity="1"><g transform="translate(23.482474, 26.071135)"><g><path d="M 7.9375 -6.671875 L 0.984375 -6.671875 L 0.984375 -9.4375 L 7.9375 -9.4375 Z M 7.9375 -6.671875 "/></g></g></g><g fill="#ffffff" fill-opacity="1"><g transform="translate(32.42774, 26.071135)"><g><path d="M 8.5625 -16.578125 C 9.75 -16.578125 10.765625 -16.359375 11.609375 -15.921875 C 12.453125 -15.484375 13.085938 -14.875 13.515625 -14.09375 C 13.941406 -13.3125 14.15625 -12.40625 14.15625 -11.375 C 14.15625 -10.332031 13.941406 -9.421875 13.515625 -8.640625 C 13.085938 -7.867188 12.453125 -7.265625 11.609375 -6.828125 C 10.765625 -6.390625 9.75 -6.171875 8.5625 -6.171875 L 5.4375 -6.171875 L 5.4375 0 L 2.15625 0 L 2.15625 -16.578125 Z M 8.125 -8.78125 C 9.945312 -8.78125 10.859375 -9.644531 10.859375 -11.375 C 10.859375 -13.113281 9.945312 -13.984375 8.125 -13.984375 L 5.4375 -13.984375 L 5.4375 -8.78125 Z M 8.125 -8.78125 "/></g></g></g><g fill="#ffffff" fill-opacity="1"><g transform="translate(47.245792, 26.071135)"><g><path d="M 1.796875 0 L 1.796875 -12.5 L 4.859375 -12.5 L 4.859375 -10.640625 L 5.09375 -10.59375 C 5.394531 -11.289062 5.789062 -11.800781 6.28125 -12.125 C 6.769531 -12.457031 7.367188 -12.625 8.078125 -12.625 C 8.785156 -12.625 9.320312 -12.5 9.6875 -12.25 L 9.15625 -9.546875 L 8.921875 -9.5 C 8.710938 -9.582031 8.515625 -9.640625 8.328125 -9.671875 C 8.140625 -9.710938 7.910156 -9.734375 7.640625 -9.734375 C 6.765625 -9.734375 6.09375 -9.425781 5.625 -8.8125 C 5.164062 -8.195312 4.9375 -7.207031 4.9375 -5.84375 L 4.9375 0 Z M 1.796875 0 "/></g></g></g><g fill="#ffffff" fill-opacity="1"><g transform="translate(56.723894, 26.071135)"><g><path d="M 7.265625 0.234375 C 6.046875 0.234375 4.972656 -0.015625 4.046875 -0.515625 C 3.117188 -1.015625 2.398438 -1.75 1.890625 -2.71875 C 1.378906 -3.695312 1.125 -4.875 1.125 -6.25 C 1.125 -7.625 1.378906 -8.796875 1.890625 -9.765625 C 2.398438 -10.742188 3.117188 -11.484375 4.046875 -11.984375 C 4.972656 -12.492188 6.046875 -12.75 7.265625 -12.75 C 8.492188 -12.75 9.566406 -12.492188 10.484375 -11.984375 C 11.410156 -11.484375 12.128906 -10.742188 12.640625 -9.765625 C 13.160156 -8.796875 13.421875 -7.625 13.421875 -6.25 C 13.421875 -4.875 13.160156 -3.695312 12.640625 -2.71875 C 12.128906 -1.75 11.410156 -1.015625 10.484375 -0.515625 C 9.566406 -0.015625 8.492188 0.234375 7.265625 0.234375 Z M 7.265625 -2.421875 C 9.210938 -2.421875 10.1875 -3.695312 10.1875 -6.25 C 10.1875 -7.570312 9.9375 -8.539062 9.4375 -9.15625 C 8.9375 -9.769531 8.210938 -10.078125 7.265625 -10.078125 C 5.328125 -10.078125 4.359375 -8.800781 4.359375 -6.25 C 4.359375 -3.695312 5.328125 -2.421875 7.265625 -2.421875 Z M 7.265625 -2.421875 "/></g></g></g><g fill="#ffffff" fill-opacity="1"><g transform="translate(70.975072, 26.071135)"><g><path d="M 10.5 0 L 0.65625 0 L 0.65625 -2.59375 L 6.71875 -9.78125 L 6.640625 -10.015625 L 0.9375 -10.015625 L 0.9375 -12.515625 L 10.40625 -12.515625 L 10.40625 -9.921875 L 4.359375 -2.734375 L 4.4375 -2.5 L 10.5 -2.5 Z M 10.5 0 "/></g></g></g><g fill="#ffffff" fill-opacity="1"><g transform="translate(81.983741, 26.071135)"><g><path d="M 12.359375 -5.546875 L 4.3125 -5.546875 C 4.40625 -4.453125 4.71875 -3.65625 5.25 -3.15625 C 5.78125 -2.664062 6.503906 -2.421875 7.421875 -2.421875 C 8.128906 -2.421875 8.707031 -2.554688 9.15625 -2.828125 C 9.601562 -3.097656 9.960938 -3.503906 10.234375 -4.046875 L 10.46875 -4.046875 L 12.5625 -2.703125 C 12.15625 -1.828125 11.539062 -1.117188 10.71875 -0.578125 C 9.894531 -0.0351562 8.796875 0.234375 7.421875 0.234375 C 6.117188 0.234375 5 -0.0078125 4.0625 -0.5 C 3.125 -0.988281 2.398438 -1.71875 1.890625 -2.6875 C 1.378906 -3.664062 1.125 -4.851562 1.125 -6.25 C 1.125 -7.664062 1.390625 -8.859375 1.921875 -9.828125 C 2.460938 -10.804688 3.1875 -11.535156 4.09375 -12.015625 C 5.007812 -12.503906 6.039062 -12.75 7.1875 -12.75 C 8.957031 -12.75 10.3125 -12.28125 11.25 -11.34375 C 12.1875 -10.40625 12.65625 -9.023438 12.65625 -7.203125 C 12.65625 -6.546875 12.632812 -6.039062 12.59375 -5.6875 Z M 9.65625 -7.578125 C 9.625 -8.523438 9.398438 -9.21875 8.984375 -9.65625 C 8.578125 -10.09375 7.976562 -10.3125 7.1875 -10.3125 C 5.601562 -10.3125 4.671875 -9.398438 4.390625 -7.578125 Z M 9.65625 -7.578125 "/></g></g></g><g fill="#ffffff" fill-opacity="1"><g transform="translate(95.57737, 26.071135)"><g><path d="M 5.84375 0.234375 C 4.988281 0.234375 4.207031 0.132812 3.5 -0.0625 C 2.789062 -0.257812 2.179688 -0.535156 1.671875 -0.890625 C 1.171875 -1.242188 0.800781 -1.644531 0.5625 -2.09375 L 2.3125 -3.984375 L 2.546875 -3.984375 C 2.960938 -3.421875 3.453125 -3 4.015625 -2.71875 C 4.585938 -2.4375 5.207031 -2.296875 5.875 -2.296875 C 6.488281 -2.296875 6.945312 -2.40625 7.25 -2.625 C 7.5625 -2.84375 7.71875 -3.160156 7.71875 -3.578125 C 7.71875 -3.890625 7.601562 -4.148438 7.375 -4.359375 C 7.15625 -4.578125 6.796875 -4.75 6.296875 -4.875 L 4.640625 -5.265625 C 3.398438 -5.566406 2.492188 -6.019531 1.921875 -6.625 C 1.359375 -7.238281 1.078125 -8.007812 1.078125 -8.9375 C 1.078125 -9.71875 1.273438 -10.394531 1.671875 -10.96875 C 2.066406 -11.550781 2.625 -11.992188 3.34375 -12.296875 C 4.070312 -12.597656 4.914062 -12.75 5.875 -12.75 C 7 -12.75 7.929688 -12.582031 8.671875 -12.25 C 9.410156 -11.925781 9.988281 -11.492188 10.40625 -10.953125 L 8.734375 -9.140625 L 8.5 -9.140625 C 8.15625 -9.535156 7.765625 -9.820312 7.328125 -10 C 6.890625 -10.175781 6.40625 -10.265625 5.875 -10.265625 C 4.632812 -10.265625 4.015625 -9.878906 4.015625 -9.109375 C 4.015625 -8.785156 4.128906 -8.519531 4.359375 -8.3125 C 4.585938 -8.113281 4.992188 -7.953125 5.578125 -7.828125 L 7.125 -7.484375 C 8.394531 -7.210938 9.320312 -6.773438 9.90625 -6.171875 C 10.488281 -5.566406 10.78125 -4.757812 10.78125 -3.75 C 10.78125 -2.957031 10.582031 -2.257812 10.1875 -1.65625 C 9.800781 -1.050781 9.234375 -0.582031 8.484375 -0.25 C 7.742188 0.0703125 6.863281 0.234375 5.84375 0.234375 Z M 5.84375 0.234375 "/></g></g></g><g fill="#ffffff" fill-opacity="1"><g transform="translate(107.107579, 26.071135)"><g><path d="M 5.84375 0.234375 C 4.988281 0.234375 4.207031 0.132812 3.5 -0.0625 C 2.789062 -0.257812 2.179688 -0.535156 1.671875 -0.890625 C 1.171875 -1.242188 0.800781 -1.644531 0.5625 -2.09375 L 2.3125 -3.984375 L 2.546875 -3.984375 C 2.960938 -3.421875 3.453125 -3 4.015625 -2.71875 C 4.585938 -2.4375 5.207031 -2.296875 5.875 -2.296875 C 6.488281 -2.296875 6.945312 -2.40625 7.25 -2.625 C 7.5625 -2.84375 7.71875 -3.160156 7.71875 -3.578125 C 7.71875 -3.890625 7.601562 -4.148438 7.375 -4.359375 C 7.15625 -4.578125 6.796875 -4.75 6.296875 -4.875 L 4.640625 -5.265625 C 3.398438 -5.566406 2.492188 -6.019531 1.921875 -6.625 C 1.359375 -7.238281 1.078125 -8.007812 1.078125 -8.9375 C 1.078125 -9.71875 1.273438 -10.394531 1.671875 -10.96875 C 2.066406 -11.550781 2.625 -11.992188 3.34375 -12.296875 C 4.070312 -12.597656 4.914062 -12.75 5.875 -12.75 C 7 -12.75 7.929688 -12.582031 8.671875 -12.25 C 9.410156 -11.925781 9.988281 -11.492188 10.40625 -10.953125 L 8.734375 -9.140625 L 8.5 -9.140625 C 8.15625 -9.535156 7.765625 -9.820312 7.328125 -10 C 6.890625 -10.175781 6.40625 -10.265625 5.875 -10.265625 C 4.632812 -10.265625 4.015625 -9.878906 4.015625 -9.109375 C 4.015625 -8.785156 4.128906 -8.519531 4.359375 -8.3125 C 4.585938 -8.113281 4.992188 -7.953125 5.578125 -7.828125 L 7.125 -7.484375 C 8.394531 -7.210938 9.320312 -6.773438 9.90625 -6.171875 C 10.488281 -5.566406 10.78125 -4.757812 10.78125 -3.75 C 10.78125 -2.957031 10.582031 -2.257812 10.1875 -1.65625 C 9.800781 -1.050781 9.234375 -0.582031 8.484375 -0.25 C 7.742188 0.0703125 6.863281 0.234375 5.84375 0.234375 Z M 5.84375 0.234375 "/></g></g></g><g fill="#ffffff" fill-opacity="1"><g transform="translate(118.637788, 26.071135)"><g><path d="M 1.796875 0 L 1.796875 -12.5 L 4.8125 -12.5 L 4.8125 -10.671875 L 5.0625 -10.609375 C 5.832031 -12.035156 7.09375 -12.75 8.84375 -12.75 C 10.289062 -12.75 11.347656 -12.351562 12.015625 -11.5625 C 12.691406 -10.78125 13.03125 -9.632812 13.03125 -8.125 L 13.03125 0 L 9.890625 0 L 9.890625 -7.75 C 9.890625 -8.570312 9.722656 -9.164062 9.390625 -9.53125 C 9.066406 -9.90625 8.535156 -10.09375 7.796875 -10.09375 C 6.898438 -10.09375 6.195312 -9.800781 5.6875 -9.21875 C 5.1875 -8.632812 4.9375 -7.71875 4.9375 -6.46875 L 4.9375 0 Z M 1.796875 0 "/></g></g></g><g fill="#ffffff" fill-opacity="1"><g transform="translate(133.285802, 26.071135)"><g><path d="M 4.875 0.234375 C 4.070312 0.234375 3.375 0.0859375 2.78125 -0.203125 C 2.195312 -0.492188 1.742188 -0.925781 1.421875 -1.5 C 1.109375 -2.070312 0.953125 -2.757812 0.953125 -3.5625 C 0.953125 -4.300781 1.109375 -4.921875 1.421875 -5.421875 C 1.742188 -5.921875 2.238281 -6.332031 2.90625 -6.65625 C 3.570312 -6.976562 4.441406 -7.226562 5.515625 -7.40625 C 6.253906 -7.519531 6.816406 -7.648438 7.203125 -7.796875 C 7.597656 -7.941406 7.863281 -8.101562 8 -8.28125 C 8.132812 -8.46875 8.203125 -8.703125 8.203125 -8.984375 C 8.203125 -9.378906 8.0625 -9.679688 7.78125 -9.890625 C 7.507812 -10.109375 7.046875 -10.21875 6.390625 -10.21875 C 5.691406 -10.21875 5.03125 -10.0625 4.40625 -9.75 C 3.78125 -9.4375 3.238281 -9.03125 2.78125 -8.53125 L 2.546875 -8.53125 L 1.234375 -10.515625 C 1.867188 -11.210938 2.644531 -11.757812 3.5625 -12.15625 C 4.476562 -12.550781 5.472656 -12.75 6.546875 -12.75 C 8.203125 -12.75 9.398438 -12.394531 10.140625 -11.6875 C 10.890625 -10.988281 11.265625 -9.992188 11.265625 -8.703125 L 11.265625 -3.265625 C 11.265625 -2.703125 11.507812 -2.421875 12 -2.421875 C 12.1875 -2.421875 12.367188 -2.457031 12.546875 -2.53125 L 12.703125 -2.484375 L 12.9375 -0.296875 C 12.757812 -0.179688 12.515625 -0.0859375 12.203125 -0.015625 C 11.898438 0.0546875 11.5625 0.09375 11.1875 0.09375 C 10.4375 0.09375 9.851562 -0.046875 9.4375 -0.328125 C 9.019531 -0.617188 8.71875 -1.070312 8.53125 -1.6875 L 8.296875 -1.71875 C 7.679688 -0.414062 6.539062 0.234375 4.875 0.234375 Z M 5.875 -2.109375 C 6.601562 -2.109375 7.179688 -2.351562 7.609375 -2.84375 C 8.046875 -3.332031 8.265625 -4.007812 8.265625 -4.875 L 8.265625 -6.140625 L 8.046875 -6.1875 C 7.859375 -6.039062 7.609375 -5.914062 7.296875 -5.8125 C 6.992188 -5.707031 6.554688 -5.609375 5.984375 -5.515625 C 5.304688 -5.398438 4.816406 -5.203125 4.515625 -4.921875 C 4.210938 -4.648438 4.0625 -4.257812 4.0625 -3.75 C 4.0625 -3.21875 4.21875 -2.8125 4.53125 -2.53125 C 4.851562 -2.25 5.300781 -2.109375 5.875 -2.109375 Z M 5.875 -2.109375 "/></g></g></g><g fill="#ffffff" fill-opacity="1"><g transform="translate(146.233171, 26.071135)"><g><path d="M 8.609375 0 L 4.859375 0 L 0.234375 -12.5 L 3.53125 -12.5 L 6.625 -3.59375 L 6.890625 -3.59375 L 10.015625 -12.5 L 13.21875 -12.5 Z M 8.609375 0 "/></g></g></g><g fill="#ffffff" fill-opacity="1"><g transform="translate(159.679413, 26.071135)"><g><path d="M 3.359375 -14 C 2.796875 -14 2.335938 -14.171875 1.984375 -14.515625 C 1.628906 -14.859375 1.453125 -15.300781 1.453125 -15.84375 C 1.453125 -16.382812 1.628906 -16.828125 1.984375 -17.171875 C 2.335938 -17.515625 2.796875 -17.6875 3.359375 -17.6875 C 3.742188 -17.6875 4.082031 -17.601562 4.375 -17.4375 C 4.664062 -17.28125 4.894531 -17.0625 5.0625 -16.78125 C 5.226562 -16.507812 5.3125 -16.195312 5.3125 -15.84375 C 5.3125 -15.488281 5.226562 -15.171875 5.0625 -14.890625 C 4.894531 -14.617188 4.664062 -14.398438 4.375 -14.234375 C 4.082031 -14.078125 3.742188 -14 3.359375 -14 Z M 1.796875 0 L 1.796875 -12.5 L 4.9375 -12.5 L 4.9375 0 Z M 1.796875 0 "/></g></g></g><g fill="#ffffff" fill-opacity="1"><g transform="translate(166.413872, 26.071135)"><g><path d="M 6.484375 5.3125 C 4.421875 5.3125 2.894531 5.003906 1.90625 4.390625 C 0.925781 3.785156 0.4375 2.945312 0.4375 1.875 C 0.4375 1.21875 0.644531 0.675781 1.0625 0.25 C 1.488281 -0.164062 2.09375 -0.445312 2.875 -0.59375 L 2.875 -0.828125 C 2.457031 -1.085938 2.15625 -1.375 1.96875 -1.6875 C 1.78125 -2 1.6875 -2.363281 1.6875 -2.78125 C 1.6875 -3.78125 2.34375 -4.457031 3.65625 -4.8125 L 3.65625 -5.046875 C 2.976562 -5.429688 2.46875 -5.90625 2.125 -6.46875 C 1.789062 -7.039062 1.625 -7.734375 1.625 -8.546875 C 1.625 -9.378906 1.8125 -10.109375 2.1875 -10.734375 C 2.570312 -11.367188 3.132812 -11.863281 3.875 -12.21875 C 4.613281 -12.570312 5.492188 -12.75 6.515625 -12.75 C 7.554688 -12.75 8.390625 -12.566406 9.015625 -12.203125 C 9.398438 -12.753906 9.625 -13.398438 9.6875 -14.140625 L 9.921875 -14.28125 L 12.171875 -13.734375 C 12.109375 -13.128906 11.9375 -12.625 11.65625 -12.21875 C 11.375 -11.820312 10.9375 -11.460938 10.34375 -11.140625 L 10.34375 -10.890625 C 11.050781 -10.273438 11.40625 -9.410156 11.40625 -8.296875 C 11.40625 -7.523438 11.210938 -6.832031 10.828125 -6.21875 C 10.441406 -5.613281 9.878906 -5.128906 9.140625 -4.765625 C 8.398438 -4.410156 7.523438 -4.234375 6.515625 -4.234375 L 6.046875 -4.25 C 5.742188 -4.269531 5.53125 -4.28125 5.40625 -4.28125 C 5.125 -4.28125 4.898438 -4.203125 4.734375 -4.046875 C 4.566406 -3.890625 4.484375 -3.691406 4.484375 -3.453125 C 4.484375 -3.179688 4.585938 -2.972656 4.796875 -2.828125 C 5.015625 -2.679688 5.328125 -2.597656 5.734375 -2.578125 L 8.53125 -2.484375 C 11.300781 -2.398438 12.6875 -1.207031 12.6875 1.09375 C 12.6875 1.894531 12.476562 2.609375 12.0625 3.234375 C 11.65625 3.867188 10.988281 4.375 10.0625 4.75 C 9.144531 5.125 7.953125 5.3125 6.484375 5.3125 Z M 6.515625 -6.4375 C 7.117188 -6.4375 7.59375 -6.613281 7.9375 -6.96875 C 8.28125 -7.320312 8.453125 -7.828125 8.453125 -8.484375 C 8.453125 -9.148438 8.28125 -9.65625 7.9375 -10 C 7.59375 -10.351562 7.117188 -10.53125 6.515625 -10.53125 C 5.898438 -10.53125 5.425781 -10.351562 5.09375 -10 C 4.769531 -9.65625 4.609375 -9.148438 4.609375 -8.484375 C 4.609375 -7.828125 4.769531 -7.320312 5.09375 -6.96875 C 5.425781 -6.613281 5.898438 -6.4375 6.515625 -6.4375 Z M 6.484375 3.03125 C 7.554688 3.03125 8.335938 2.878906 8.828125 2.578125 C 9.316406 2.273438 9.5625 1.878906 9.5625 1.390625 C 9.5625 1.003906 9.4375 0.71875 9.1875 0.53125 C 8.9375 0.34375 8.539062 0.242188 8 0.234375 L 5.515625 0.109375 C 5.429688 0.109375 5.351562 0.101562 5.28125 0.09375 C 5.21875 0.09375 5.148438 0.09375 5.078125 0.09375 C 4.546875 0.09375 4.140625 0.203125 3.859375 0.421875 C 3.585938 0.648438 3.453125 0.96875 3.453125 1.375 C 3.453125 1.90625 3.707031 2.3125 4.21875 2.59375 C 4.726562 2.882812 5.484375 3.03125 6.484375 3.03125 Z M 6.484375 3.03125 "/></g></g></g><g fill="#ffffff" fill-opacity="1"><g transform="translate(179.270549, 26.071135)"><g><path d="M 4.875 0.234375 C 4.070312 0.234375 3.375 0.0859375 2.78125 -0.203125 C 2.195312 -0.492188 1.742188 -0.925781 1.421875 -1.5 C 1.109375 -2.070312 0.953125 -2.757812 0.953125 -3.5625 C 0.953125 -4.300781 1.109375 -4.921875 1.421875 -5.421875 C 1.742188 -5.921875 2.238281 -6.332031 2.90625 -6.65625 C 3.570312 -6.976562 4.441406 -7.226562 5.515625 -7.40625 C 6.253906 -7.519531 6.816406 -7.648438 7.203125 -7.796875 C 7.597656 -7.941406 7.863281 -8.101562 8 -8.28125 C 8.132812 -8.46875 8.203125 -8.703125 8.203125 -8.984375 C 8.203125 -9.378906 8.0625 -9.679688 7.78125 -9.890625 C 7.507812 -10.109375 7.046875 -10.21875 6.390625 -10.21875 C 5.691406 -10.21875 5.03125 -10.0625 4.40625 -9.75 C 3.78125 -9.4375 3.238281 -9.03125 2.78125 -8.53125 L 2.546875 -8.53125 L 1.234375 -10.515625 C 1.867188 -11.210938 2.644531 -11.757812 3.5625 -12.15625 C 4.476562 -12.550781 5.472656 -12.75 6.546875 -12.75 C 8.203125 -12.75 9.398438 -12.394531 10.140625 -11.6875 C 10.890625 -10.988281 11.265625 -9.992188 11.265625 -8.703125 L 11.265625 -3.265625 C 11.265625 -2.703125 11.507812 -2.421875 12 -2.421875 C 12.1875 -2.421875 12.367188 -2.457031 12.546875 -2.53125 L 12.703125 -2.484375 L 12.9375 -0.296875 C 12.757812 -0.179688 12.515625 -0.0859375 12.203125 -0.015625 C 11.898438 0.0546875 11.5625 0.09375 11.1875 0.09375 C 10.4375 0.09375 9.851562 -0.046875 9.4375 -0.328125 C 9.019531 -0.617188 8.71875 -1.070312 8.53125 -1.6875 L 8.296875 -1.71875 C 7.679688 -0.414062 6.539062 0.234375 4.875 0.234375 Z M 5.875 -2.109375 C 6.601562 -2.109375 7.179688 -2.351562 7.609375 -2.84375 C 8.046875 -3.332031 8.265625 -4.007812 8.265625 -4.875 L 8.265625 -6.140625 L 8.046875 -6.1875 C 7.859375 -6.039062 7.609375 -5.914062 7.296875 -5.8125 C 6.992188 -5.707031 6.554688 -5.609375 5.984375 -5.515625 C 5.304688 -5.398438 4.816406 -5.203125 4.515625 -4.921875 C 4.210938 -4.648438 4.0625 -4.257812 4.0625 -3.75 C 4.0625 -3.21875 4.21875 -2.8125 4.53125 -2.53125 C 4.851562 -2.25 5.300781 -2.109375 5.875 -2.109375 Z M 5.875 -2.109375 "/></g></g></g><g fill="#ffffff" fill-opacity="1"><g transform="translate(192.308626, 26.071135)"><g><path d="M 8.625 -2.984375 L 9.4375 -0.65625 C 9.101562 -0.375 8.675781 -0.15625 8.15625 0 C 7.644531 0.15625 7.066406 0.234375 6.421875 0.234375 C 5.066406 0.234375 4.035156 -0.128906 3.328125 -0.859375 C 2.628906 -1.597656 2.28125 -2.671875 2.28125 -4.078125 L 2.28125 -10.015625 L 0.375 -10.015625 L 0.375 -12.515625 L 2.28125 -12.515625 L 2.28125 -14.953125 L 5.421875 -15.46875 L 5.421875 -12.515625 L 8.96875 -12.515625 L 8.96875 -10.015625 L 5.421875 -10.015625 L 5.421875 -4.3125 C 5.421875 -3.6875 5.546875 -3.234375 5.796875 -2.953125 C 6.054688 -2.671875 6.429688 -2.53125 6.921875 -2.53125 C 7.484375 -2.53125 7.972656 -2.679688 8.390625 -2.984375 Z M 8.625 -2.984375 "/></g></g></g><g fill="#ffffff" fill-opacity="1"><g transform="translate(201.877436, 26.071135)"><g><path d="M 7.265625 0.234375 C 6.046875 0.234375 4.972656 -0.015625 4.046875 -0.515625 C 3.117188 -1.015625 2.398438 -1.75 1.890625 -2.71875 C 1.378906 -3.695312 1.125 -4.875 1.125 -6.25 C 1.125 -7.625 1.378906 -8.796875 1.890625 -9.765625 C 2.398438 -10.742188 3.117188 -11.484375 4.046875 -11.984375 C 4.972656 -12.492188 6.046875 -12.75 7.265625 -12.75 C 8.492188 -12.75 9.566406 -12.492188 10.484375 -11.984375 C 11.410156 -11.484375 12.128906 -10.742188 12.640625 -9.765625 C 13.160156 -8.796875 13.421875 -7.625 13.421875 -6.25 C 13.421875 -4.875 13.160156 -3.695312 12.640625 -2.71875 C 12.128906 -1.75 11.410156 -1.015625 10.484375 -0.515625 C 9.566406 -0.015625 8.492188 0.234375 7.265625 0.234375 Z M 7.265625 -2.421875 C 9.210938 -2.421875 10.1875 -3.695312 10.1875 -6.25 C 10.1875 -7.570312 9.9375 -8.539062 9.4375 -9.15625 C 8.9375 -9.769531 8.210938 -10.078125 7.265625 -10.078125 C 5.328125 -10.078125 4.359375 -8.800781 4.359375 -6.25 C 4.359375 -3.695312 5.328125 -2.421875 7.265625 -2.421875 Z M 7.265625 -2.421875 "/></g></g></g><g clip-path="url(#58d5288cd0)"><g fill="#ffffff" fill-opacity="1"><g transform="translate(216.412075, 26.071135)"><g><path d="M 1.796875 0 L 1.796875 -12.5 L 4.859375 -12.5 L 4.859375 -10.640625 L 5.09375 -10.59375 C 5.394531 -11.289062 5.789062 -11.800781 6.28125 -12.125 C 6.769531 -12.457031 7.367188 -12.625 8.078125 -12.625 C 8.785156 -12.625 9.320312 -12.5 9.6875 -12.25 L 9.15625 -9.546875 L 8.921875 -9.5 C 8.710938 -9.582031 8.515625 -9.640625 8.328125 -9.671875 C 8.140625 -9.710938 7.910156 -9.734375 7.640625 -9.734375 C 6.765625 -9.734375 6.09375 -9.425781 5.625 -8.8125 C 5.164062 -8.195312 4.9375 -7.207031 4.9375 -5.84375 L 4.9375 0 Z M 1.796875 0 "/></g></g></g></g></g></g><g clip-path="url(#108ee92ac3)"><path fill="#ffffff" d="M 54.78125 51.472656 C 54.78125 52.332031 54.082031 53.03125 53.222656 53.03125 C 52.359375 53.03125 51.660156 52.332031 51.660156 51.472656 C 51.660156 50.609375 52.359375 49.910156 53.222656 49.910156 C 54.082031 49.910156 54.78125 50.609375 54.78125 51.472656 Z M 68.046875 51.472656 C 68.046875 50.074219 66.914062 48.941406 65.515625 48.941406 C 64.371094 48.941406 63.402344 49.703125 63.09375 50.746094 L 56.511719 50.746094 C 56.179688 49.234375 54.835938 48.101562 53.222656 48.101562 C 51.363281 48.101562 49.851562 49.609375 49.851562 51.472656 C 49.851562 52.324219 50.171875 53.105469 50.695312 53.699219 C 48.804688 55.464844 46.640625 56.871094 44.300781 57.871094 C 44.011719 56.789062 43.027344 55.992188 41.855469 55.992188 C 40.457031 55.992188 39.324219 57.125 39.324219 58.523438 C 39.324219 59.921875 40.457031 61.054688 41.855469 61.054688 C 42.917969 61.054688 43.824219 60.398438 44.203125 59.472656 C 47.042969 58.363281 49.648438 56.703125 51.886719 54.566406 C 52.082031 54.648438 52.285156 54.714844 52.5 54.761719 L 52.5 61.617188 C 51.792969 61.769531 51.167969 62.148438 50.703125 62.667969 L 45.714844 59.875 L 45.007812 61.136719 L 49.996094 63.929688 C 49.902344 64.238281 49.851562 64.566406 49.851562 64.90625 C 49.851562 66.769531 51.363281 68.277344 53.222656 68.277344 C 55.082031 68.277344 56.589844 66.769531 56.589844 64.90625 C 56.589844 63.296875 55.457031 61.949219 53.945312 61.617188 L 53.945312 54.761719 C 55.207031 54.484375 56.203125 53.503906 56.5 52.25 L 63.109375 52.25 C 63.285156 52.792969 63.640625 53.257812 64.105469 53.570312 C 62.21875 56.894531 59.78125 59.824219 56.945312 62.257812 C 57.238281 62.664062 57.464844 63.125 57.609375 63.617188 C 60.8125 60.921875 63.488281 57.667969 65.519531 54.003906 C 66.917969 54 68.046875 52.867188 68.046875 51.472656 " fill-opacity="1" fill-rule="nonzero"/></g><g clip-path="url(#7592f90519)"><path fill="#ffffff" d="M 66.238281 22.777344 C 66.238281 23.636719 65.539062 24.335938 64.679688 24.335938 C 63.820312 24.335938 63.117188 23.636719 63.117188 22.777344 C 63.117188 21.914062 63.820312 21.214844 64.679688 21.214844 C 65.539062 21.214844 66.238281 21.914062 66.238281 22.777344 Z M 51.980469 10.179688 C 50.765625 10.179688 49.78125 9.191406 49.78125 7.980469 C 49.78125 6.765625 50.765625 5.78125 51.980469 5.78125 C 53.191406 5.78125 54.179688 6.765625 54.179688 7.980469 C 54.179688 9.191406 53.191406 10.179688 51.980469 10.179688 Z M 32.207031 3.371094 C 32.207031 4.230469 31.507812 4.929688 30.644531 4.929688 C 29.785156 4.929688 29.085938 4.230469 29.085938 3.371094 C 29.085938 2.507812 29.785156 1.808594 30.644531 1.808594 C 31.507812 1.808594 32.207031 2.507812 32.207031 3.371094 Z M 28.234375 16.328125 C 28.234375 17.542969 27.25 18.53125 26.035156 18.53125 C 24.824219 18.53125 23.835938 17.542969 23.835938 16.328125 C 23.835938 15.117188 24.824219 14.128906 26.035156 14.128906 C 27.25 14.128906 28.234375 15.117188 28.234375 16.328125 Z M 68.046875 22.777344 C 68.046875 20.914062 66.539062 19.40625 64.679688 19.40625 C 62.878906 19.40625 61.40625 20.820312 61.316406 22.597656 L 55.539062 22.597656 C 55.214844 21.863281 54.554688 21.308594 53.75 21.140625 L 53.0625 12.460938 C 53.628906 12.324219 54.15625 12.082031 54.621094 11.757812 L 60.789062 18.15625 L 61.832031 17.148438 L 55.660156 10.753906 C 56.246094 9.984375 56.589844 9.023438 56.589844 7.980469 C 56.589844 5.433594 54.527344 3.371094 51.980469 3.371094 C 50.328125 3.371094 48.878906 4.238281 48.066406 5.546875 C 44.109375 3.996094 39.882812 3.191406 35.570312 3.191406 C 35.046875 3.191406 34.527344 3.203125 34.011719 3.222656 C 33.9375 1.429688 32.457031 0 30.644531 0 C 28.785156 0 27.277344 1.507812 27.277344 3.371094 C 27.277344 3.644531 27.3125 3.914062 27.375 4.171875 C 22.152344 5.449219 17.304688 7.949219 13.179688 11.527344 C 13.484375 11.925781 13.714844 12.386719 13.839844 12.890625 C 17.828125 9.355469 22.683594 6.773438 28.042969 5.507812 C 28.273438 5.789062 28.550781 6.03125 28.863281 6.226562 L 26.878906 11.796875 C 26.605469 11.746094 26.324219 11.71875 26.035156 11.71875 C 23.988281 11.71875 22.257812 13.050781 21.652344 14.894531 L 12.722656 13.46875 C 12.558594 12.226562 11.5 11.269531 10.214844 11.269531 C 8.816406 11.269531 7.683594 12.402344 7.683594 13.796875 C 7.683594 15.195312 8.816406 16.328125 10.214844 16.328125 C 11.21875 16.328125 12.085938 15.742188 12.496094 14.894531 L 21.425781 16.324219 L 21.425781 16.328125 C 21.425781 18.875 23.488281 20.941406 26.035156 20.941406 C 28.582031 20.941406 30.644531 18.875 30.644531 16.328125 C 30.644531 14.582031 29.675781 13.066406 28.242188 12.28125 L 30.226562 6.710938 C 30.363281 6.726562 30.503906 6.738281 30.644531 6.738281 C 31.398438 6.738281 32.089844 6.492188 32.652344 6.074219 L 39.753906 12.265625 L 40.703125 11.175781 L 33.601562 4.984375 C 33.65625 4.890625 33.703125 4.789062 33.746094 4.6875 C 34.351562 4.65625 34.957031 4.636719 35.570312 4.636719 C 39.714844 4.636719 43.753906 5.429688 47.5 6.902344 C 47.414062 7.246094 47.371094 7.609375 47.371094 7.980469 C 47.371094 10.40625 49.242188 12.390625 51.621094 12.574219 L 52.261719 20.644531 C 50.410156 18.796875 48.292969 17.292969 45.992188 16.160156 C 46.003906 16.058594 46.015625 15.953125 46.015625 15.84375 C 46.015625 14.445312 44.882812 13.3125 43.484375 13.3125 C 42.59375 13.3125 41.8125 13.773438 41.363281 14.464844 C 39.492188 14 37.550781 13.753906 35.570312 13.753906 C 34.152344 13.753906 32.765625 13.882812 31.414062 14.121094 C 31.597656 14.566406 31.726562 15.035156 31.792969 15.523438 C 33.023438 15.3125 34.28125 15.203125 35.570312 15.203125 C 37.410156 15.203125 39.214844 15.425781 40.953125 15.855469 C 40.960938 17.25 42.089844 18.375 43.484375 18.375 C 44.253906 18.375 44.941406 18.03125 45.40625 17.488281 C 47.621094 18.578125 49.648438 20.046875 51.414062 21.84375 C 50.96875 22.300781 50.691406 22.925781 50.691406 23.613281 C 50.691406 25.011719 51.824219 26.144531 53.222656 26.144531 C 54.472656 26.144531 55.507812 25.238281 55.714844 24.042969 L 61.558594 24.042969 C 62.058594 25.277344 63.265625 26.144531 64.679688 26.144531 C 66.539062 26.144531 68.046875 24.636719 68.046875 22.777344 " fill-opacity="1" fill-rule="nonzero"/></g><path fill="#ffffff" d="M 3.875 28.675781 C 3.875 29.40625 3.28125 30.003906 2.550781 30.003906 C 1.820312 30.003906 1.226562 29.40625 1.226562 28.675781 C 1.226562 27.945312 1.820312 27.351562 2.550781 27.351562 C 3.28125 27.351562 3.875 27.945312 3.875 28.675781 Z M 12.296875 36.550781 C 13.507812 36.550781 14.496094 37.535156 14.496094 38.75 C 14.496094 39.960938 13.507812 40.949219 12.296875 40.949219 C 11.082031 40.949219 10.09375 39.960938 10.09375 38.75 C 10.09375 37.535156 11.082031 36.550781 12.296875 36.550781 Z M 21.636719 20.125 C 21.320312 19.761719 21.046875 19.355469 20.832031 18.917969 C 19.265625 20.167969 17.859375 21.617188 16.652344 23.21875 C 16.246094 22.9375 15.753906 22.777344 15.226562 22.777344 C 13.851562 22.777344 12.738281 23.867188 12.699219 25.230469 L 4.707031 27.355469 C 4.636719 27.242188 4.558594 27.132812 4.472656 27.03125 C 5.640625 23.550781 7.375 20.328125 9.566406 17.476562 C 9.050781 17.386719 8.574219 17.191406 8.152344 16.910156 C 6.011719 19.761719 4.351562 22.902344 3.203125 26.234375 C 2.996094 26.175781 2.777344 26.144531 2.550781 26.144531 C 1.152344 26.144531 0.0195312 27.277344 0.0195312 28.675781 C 0.0195312 29.824219 0.78125 30.789062 1.828125 31.101562 L 1.828125 43.359375 L 3.273438 43.359375 L 3.273438 31.101562 C 4.296875 30.796875 5.042969 29.863281 5.078125 28.753906 L 13.070312 26.628906 C 13.308594 27.019531 13.652344 27.339844 14.058594 27.554688 C 13.113281 29.609375 12.453125 31.824219 12.128906 34.144531 C 9.660156 34.230469 7.683594 36.257812 7.683594 38.75 C 7.683594 41.296875 9.75 43.359375 12.296875 43.359375 C 14.839844 43.359375 16.90625 41.296875 16.90625 38.75 C 16.90625 36.644531 15.492188 34.871094 13.566406 34.316406 C 13.886719 32.019531 14.5625 29.835938 15.535156 27.816406 C 16.785156 27.664062 17.757812 26.601562 17.757812 25.308594 C 17.757812 24.984375 17.695312 24.675781 17.582031 24.394531 C 18.742188 22.796875 20.105469 21.363281 21.636719 20.125 " fill-opacity="1" fill-rule="nonzero"/><path fill="#ffffff" d="M 39.445312 70.390625 C 39.445312 71.601562 38.457031 72.589844 37.246094 72.589844 C 36.03125 72.589844 35.046875 71.601562 35.046875 70.390625 C 35.046875 69.175781 36.03125 68.191406 37.246094 68.191406 C 38.457031 68.191406 39.445312 69.175781 39.445312 70.390625 Z M 31.972656 59.007812 C 31.972656 59.738281 31.378906 60.332031 30.644531 60.332031 C 29.914062 60.332031 29.320312 59.738281 29.320312 59.007812 C 29.320312 58.277344 29.914062 57.679688 30.644531 57.679688 C 31.378906 57.679688 31.972656 58.277344 31.972656 59.007812 Z M 4.316406 49.664062 C 3.457031 49.664062 2.753906 48.964844 2.753906 48.101562 C 2.753906 47.242188 3.457031 46.542969 4.316406 46.542969 C 5.175781 46.542969 5.875 47.242188 5.875 48.101562 C 5.875 48.964844 5.175781 49.664062 4.316406 49.664062 Z M 16.195312 51.472656 C 16.195312 50.609375 16.894531 49.910156 17.757812 49.910156 C 18.617188 49.910156 19.316406 50.609375 19.316406 51.472656 C 19.316406 52.332031 18.617188 53.03125 17.757812 53.03125 C 16.894531 53.03125 16.195312 52.332031 16.195312 51.472656 Z M 50.230469 68.363281 C 49.847656 68.03125 49.519531 67.636719 49.261719 67.195312 C 46.890625 68.289062 44.382812 69.105469 41.789062 69.609375 C 41.417969 67.433594 39.527344 65.777344 37.246094 65.777344 C 36.660156 65.777344 36.101562 65.890625 35.585938 66.089844 L 32.488281 60.742188 C 32.914062 60.289062 33.175781 59.679688 33.175781 59.007812 C 33.175781 57.609375 32.042969 56.476562 30.644531 56.476562 C 29.378906 56.476562 28.332031 57.40625 28.148438 58.621094 L 16.707031 60.199219 C 16.132812 58.304688 14.375 56.929688 12.296875 56.929688 C 11.375 56.929688 10.515625 57.199219 9.796875 57.664062 C 8.21875 55.660156 6.871094 53.46875 5.789062 51.132812 C 6.457031 50.804688 7 50.265625 7.332031 49.605469 L 14.390625 51.371094 C 14.390625 51.40625 14.386719 51.4375 14.386719 51.472656 C 14.386719 53.332031 15.894531 54.839844 17.757812 54.839844 C 19.617188 54.839844 21.125 53.332031 21.125 51.472656 C 21.125 49.609375 19.617188 48.101562 17.757812 48.101562 C 17.59375 48.101562 17.433594 48.113281 17.277344 48.136719 L 15.902344 44.480469 L 14.546875 44.988281 L 15.921875 48.644531 C 15.417969 48.972656 15.007812 49.429688 14.742188 49.96875 L 7.683594 48.199219 C 7.683594 48.167969 7.683594 48.136719 7.683594 48.101562 C 7.683594 46.242188 6.175781 44.734375 4.316406 44.734375 C 2.457031 44.734375 0.945312 46.242188 0.945312 48.101562 C 0.945312 49.960938 2.457031 51.472656 4.316406 51.472656 C 4.320312 51.472656 4.328125 51.472656 4.335938 51.46875 C 5.480469 54.019531 6.941406 56.429688 8.703125 58.648438 C 8.066406 59.4375 7.683594 60.445312 7.683594 61.539062 C 7.683594 64.085938 9.75 66.148438 12.296875 66.148438 C 13.742188 66.148438 15.03125 65.484375 15.875 64.441406 L 21.496094 67.691406 C 21.453125 67.878906 21.425781 68.074219 21.425781 68.277344 C 21.425781 69.675781 22.558594 70.808594 23.957031 70.808594 C 25.355469 70.808594 26.488281 69.675781 26.488281 68.277344 C 26.488281 66.878906 25.355469 65.746094 23.957031 65.746094 C 23.285156 65.746094 22.675781 66.007812 22.21875 66.4375 L 16.597656 63.191406 C 16.785156 62.707031 16.890625 62.179688 16.902344 61.632812 L 28.34375 60.054688 C 28.742188 60.929688 29.621094 61.539062 30.644531 61.539062 C 30.851562 61.539062 31.046875 61.511719 31.234375 61.464844 L 34.335938 66.8125 C 33.375 67.597656 32.734375 68.761719 32.648438 70.078125 C 30.914062 69.925781 29.21875 69.636719 27.570312 69.222656 C 27.441406 69.710938 27.214844 70.164062 26.914062 70.554688 C 28.824219 71.050781 30.785156 71.382812 32.78125 71.546875 C 33.292969 73.53125 35.097656 75 37.246094 75 C 39.554688 75 41.46875 73.300781 41.804688 71.085938 C 44.71875 70.546875 47.550781 69.636719 50.230469 68.363281 " fill-opacity="1" fill-rule="nonzero"/></svg>