<svg xmlns="http://www.w3.org/2000/svg" xmlns:xlink="http://www.w3.org/1999/xlink" width="64" zoomAndPan="magnify" viewBox="0 0 48 48" height="64" preserveAspectRatio="xMidYMid meet" version="1.0"><defs><clipPath id="db31f27639"><path d="M 27 29 L 45.453125 29 L 45.453125 43 L 27 43 Z M 27 29 " clip-rule="nonzero"/></clipPath><clipPath id="8e304d8537"><path d="M 7 0 L 45.453125 0 L 45.453125 17 L 7 17 Z M 7 0 " clip-rule="nonzero"/></clipPath><clipPath id="c046dae6fa"><path d="M 2.839844 10 L 17 10 L 17 27 L 2.839844 27 Z M 2.839844 10 " clip-rule="nonzero"/></clipPath><clipPath id="082596f440"><path d="M 3 27 L 35 27 L 35 46.285156 L 3 46.285156 Z M 3 27 " clip-rule="nonzero"/></clipPath></defs><g clip-path="url(#db31f27639)"><path fill="#ffffff" d="M 36.898438 32 C 36.898438 32.535156 36.464844 32.972656 35.929688 32.972656 C 35.394531 32.972656 34.960938 32.535156 34.960938 32 C 34.960938 31.464844 35.394531 31.03125 35.929688 31.03125 C 36.464844 31.03125 36.898438 31.464844 36.898438 32 Z M 45.148438 32 C 45.148438 31.132812 44.441406 30.425781 43.574219 30.425781 C 42.859375 30.425781 42.257812 30.902344 42.066406 31.550781 L 37.976562 31.550781 C 37.769531 30.609375 36.929688 29.90625 35.929688 29.90625 C 34.773438 29.90625 33.835938 30.84375 33.835938 32 C 33.835938 32.53125 34.035156 33.019531 34.359375 33.386719 C 33.183594 34.484375 31.839844 35.359375 30.382812 35.980469 C 30.203125 35.308594 29.589844 34.8125 28.863281 34.8125 C 27.992188 34.8125 27.289062 35.515625 27.289062 36.386719 C 27.289062 37.253906 27.992188 37.957031 28.863281 37.957031 C 29.523438 37.957031 30.085938 37.550781 30.320312 36.976562 C 32.085938 36.285156 33.707031 35.253906 35.101562 33.925781 C 35.222656 33.976562 35.347656 34.019531 35.480469 34.046875 L 35.480469 38.308594 C 35.039062 38.40625 34.652344 38.640625 34.363281 38.964844 L 31.261719 37.226562 L 30.820312 38.011719 L 33.925781 39.746094 C 33.867188 39.941406 33.835938 40.144531 33.835938 40.355469 C 33.835938 41.511719 34.773438 42.449219 35.929688 42.449219 C 37.085938 42.449219 38.023438 41.511719 38.023438 40.355469 C 38.023438 39.351562 37.320312 38.515625 36.378906 38.308594 L 36.378906 34.046875 C 37.164062 33.875 37.78125 33.265625 37.96875 32.484375 L 42.078125 32.484375 C 42.183594 32.824219 42.40625 33.113281 42.695312 33.308594 C 41.523438 35.375 40.007812 37.195312 38.246094 38.707031 C 38.425781 38.960938 38.566406 39.246094 38.65625 39.554688 C 40.648438 37.878906 42.3125 35.851562 43.574219 33.574219 C 44.445312 33.574219 45.148438 32.871094 45.148438 32 " fill-opacity="1" fill-rule="nonzero"/></g><g clip-path="url(#8e304d8537)"><path fill="#ffffff" d="M 44.023438 14.160156 C 44.023438 14.695312 43.585938 15.132812 43.050781 15.132812 C 42.515625 15.132812 42.082031 14.695312 42.082031 14.160156 C 42.082031 13.625 42.515625 13.191406 43.050781 13.191406 C 43.585938 13.191406 44.023438 13.625 44.023438 14.160156 Z M 35.15625 6.328125 C 34.402344 6.328125 33.789062 5.714844 33.789062 4.960938 C 33.789062 4.207031 34.402344 3.59375 35.15625 3.59375 C 35.910156 3.59375 36.523438 4.207031 36.523438 4.960938 C 36.523438 5.714844 35.910156 6.328125 35.15625 6.328125 Z M 22.863281 2.09375 C 22.863281 2.628906 22.429688 3.066406 21.894531 3.066406 C 21.359375 3.066406 20.921875 2.628906 20.921875 2.09375 C 20.921875 1.558594 21.359375 1.125 21.894531 1.125 C 22.429688 1.125 22.863281 1.558594 22.863281 2.09375 Z M 20.394531 10.152344 C 20.394531 10.90625 19.78125 11.519531 19.027344 11.519531 C 18.273438 11.519531 17.660156 10.90625 17.660156 10.152344 C 17.660156 9.398438 18.273438 8.785156 19.027344 8.785156 C 19.78125 8.785156 20.394531 9.398438 20.394531 10.152344 Z M 45.148438 14.160156 C 45.148438 13.003906 44.210938 12.066406 43.050781 12.066406 C 41.933594 12.066406 41.019531 12.945312 40.960938 14.050781 L 37.371094 14.050781 C 37.167969 13.59375 36.757812 13.25 36.257812 13.144531 L 35.828125 7.746094 C 36.183594 7.664062 36.511719 7.511719 36.796875 7.308594 L 40.632812 11.289062 L 41.28125 10.664062 L 37.445312 6.6875 C 37.808594 6.207031 38.023438 5.609375 38.023438 4.960938 C 38.023438 3.378906 36.742188 2.09375 35.15625 2.09375 C 34.128906 2.09375 33.230469 2.636719 32.722656 3.449219 C 30.265625 2.484375 27.636719 1.984375 24.953125 1.984375 C 24.628906 1.984375 24.308594 1.992188 23.984375 2.003906 C 23.9375 0.890625 23.019531 0 21.894531 0 C 20.734375 0 19.796875 0.9375 19.796875 2.09375 C 19.796875 2.265625 19.820312 2.433594 19.859375 2.59375 C 16.613281 3.386719 13.597656 4.941406 11.03125 7.164062 C 11.222656 7.414062 11.367188 7.703125 11.445312 8.015625 C 13.925781 5.816406 16.945312 4.210938 20.273438 3.425781 C 20.417969 3.601562 20.589844 3.75 20.785156 3.871094 L 19.550781 7.335938 C 19.382812 7.304688 19.207031 7.285156 19.027344 7.285156 C 17.753906 7.285156 16.675781 8.113281 16.300781 9.261719 L 10.75 8.375 C 10.648438 7.601562 9.988281 7.003906 9.191406 7.003906 C 8.320312 7.003906 7.617188 7.710938 7.617188 8.578125 C 7.617188 9.449219 8.320312 10.152344 9.191406 10.152344 C 9.816406 10.152344 10.351562 9.789062 10.609375 9.261719 L 16.160156 10.148438 L 16.160156 10.152344 C 16.160156 11.734375 17.445312 13.019531 19.027344 13.019531 C 20.609375 13.019531 21.894531 11.734375 21.894531 10.152344 C 21.894531 9.066406 21.289062 8.121094 20.398438 7.636719 L 21.632812 4.171875 C 21.71875 4.183594 21.804688 4.1875 21.894531 4.1875 C 22.359375 4.1875 22.792969 4.035156 23.140625 3.777344 L 27.554688 7.625 L 28.144531 6.949219 L 23.730469 3.101562 C 23.765625 3.039062 23.792969 2.980469 23.820312 2.914062 C 24.195312 2.894531 24.574219 2.882812 24.953125 2.882812 C 27.53125 2.882812 30.042969 3.375 32.371094 4.292969 C 32.320312 4.507812 32.289062 4.730469 32.289062 4.960938 C 32.289062 6.46875 33.453125 7.703125 34.933594 7.816406 L 35.332031 12.835938 C 34.179688 11.6875 32.863281 10.75 31.433594 10.046875 C 31.441406 9.984375 31.449219 9.917969 31.449219 9.851562 C 31.449219 8.980469 30.742188 8.277344 29.875 8.277344 C 29.320312 8.277344 28.835938 8.5625 28.554688 8.996094 C 27.394531 8.703125 26.183594 8.550781 24.953125 8.550781 C 24.074219 8.550781 23.210938 8.628906 22.371094 8.78125 C 22.484375 9.054688 22.566406 9.347656 22.605469 9.652344 C 23.371094 9.519531 24.152344 9.453125 24.953125 9.453125 C 26.097656 9.453125 27.21875 9.589844 28.300781 9.859375 C 28.304688 10.722656 29.007812 11.425781 29.875 11.425781 C 30.351562 11.425781 30.78125 11.210938 31.070312 10.871094 C 32.445312 11.550781 33.707031 12.460938 34.804688 13.582031 C 34.527344 13.867188 34.355469 14.253906 34.355469 14.683594 C 34.355469 15.550781 35.058594 16.253906 35.929688 16.253906 C 36.707031 16.253906 37.351562 15.691406 37.480469 14.949219 L 41.113281 14.949219 C 41.421875 15.714844 42.175781 16.253906 43.050781 16.253906 C 44.210938 16.253906 45.148438 15.316406 45.148438 14.160156 " fill-opacity="1" fill-rule="nonzero"/></g><g clip-path="url(#c046dae6fa)"><path fill="#ffffff" d="M 5.25 17.828125 C 5.25 18.285156 4.878906 18.652344 4.425781 18.652344 C 3.96875 18.652344 3.601562 18.285156 3.601562 17.828125 C 3.601562 17.375 3.96875 17.003906 4.425781 17.003906 C 4.878906 17.003906 5.25 17.375 5.25 17.828125 Z M 10.484375 22.722656 C 11.238281 22.722656 11.851562 23.335938 11.851562 24.089844 C 11.851562 24.84375 11.238281 25.460938 10.484375 25.460938 C 9.730469 25.460938 9.117188 24.84375 9.117188 24.089844 C 9.117188 23.335938 9.730469 22.722656 10.484375 22.722656 Z M 16.292969 12.511719 C 16.09375 12.285156 15.925781 12.035156 15.789062 11.761719 C 14.816406 12.539062 13.941406 13.4375 13.191406 14.433594 C 12.941406 14.261719 12.632812 14.160156 12.304688 14.160156 C 11.453125 14.160156 10.757812 14.839844 10.734375 15.6875 L 5.765625 17.007812 C 5.722656 16.9375 5.675781 16.871094 5.621094 16.808594 C 6.347656 14.644531 7.421875 12.640625 8.789062 10.867188 C 8.46875 10.808594 8.167969 10.6875 7.910156 10.515625 C 6.578125 12.285156 5.542969 14.238281 4.832031 16.308594 C 4.699219 16.277344 4.566406 16.253906 4.425781 16.253906 C 3.554688 16.253906 2.851562 16.960938 2.851562 17.828125 C 2.851562 18.542969 3.324219 19.144531 3.976562 19.335938 L 3.976562 26.957031 L 4.875 26.957031 L 4.875 19.335938 C 5.511719 19.148438 5.976562 18.566406 5.996094 17.875 L 10.964844 16.554688 C 11.113281 16.800781 11.328125 17 11.582031 17.128906 C 10.992188 18.410156 10.582031 19.785156 10.378906 21.226562 C 8.84375 21.28125 7.617188 22.542969 7.617188 24.089844 C 7.617188 25.675781 8.902344 26.957031 10.484375 26.957031 C 12.066406 26.957031 13.351562 25.675781 13.351562 24.089844 C 13.351562 22.78125 12.472656 21.679688 11.273438 21.335938 C 11.472656 19.910156 11.894531 18.550781 12.5 17.296875 C 13.277344 17.199219 13.878906 16.539062 13.878906 15.734375 C 13.878906 15.535156 13.839844 15.34375 13.769531 15.164062 C 14.492188 14.175781 15.339844 13.28125 16.292969 12.511719 " fill-opacity="1" fill-rule="nonzero"/></g><g clip-path="url(#082596f440)"><path fill="#ffffff" d="M 27.363281 43.765625 C 27.363281 44.519531 26.75 45.132812 25.996094 45.132812 C 25.242188 45.132812 24.628906 44.519531 24.628906 43.765625 C 24.628906 43.007812 25.242188 42.394531 25.996094 42.394531 C 26.75 42.394531 27.363281 43.007812 27.363281 43.765625 Z M 22.71875 36.6875 C 22.71875 37.140625 22.347656 37.511719 21.894531 37.511719 C 21.4375 37.511719 21.070312 37.140625 21.070312 36.6875 C 21.070312 36.230469 21.4375 35.863281 21.894531 35.863281 C 22.347656 35.863281 22.71875 36.230469 22.71875 36.6875 Z M 5.523438 30.878906 C 4.988281 30.878906 4.550781 30.441406 4.550781 29.90625 C 4.550781 29.371094 4.988281 28.9375 5.523438 28.9375 C 6.058594 28.9375 6.492188 29.371094 6.492188 29.90625 C 6.492188 30.441406 6.058594 30.878906 5.523438 30.878906 Z M 12.910156 32 C 12.910156 31.464844 13.34375 31.03125 13.878906 31.03125 C 14.414062 31.03125 14.847656 31.464844 14.847656 32 C 14.847656 32.535156 14.414062 32.972656 13.878906 32.972656 C 13.34375 32.972656 12.910156 32.535156 12.910156 32 Z M 34.070312 42.503906 C 33.832031 42.296875 33.628906 42.050781 33.46875 41.777344 C 31.992188 42.457031 30.433594 42.964844 28.820312 43.277344 C 28.589844 41.925781 27.414062 40.898438 25.996094 40.898438 C 25.632812 40.898438 25.285156 40.964844 24.964844 41.089844 L 23.039062 37.765625 C 23.304688 37.484375 23.46875 37.105469 23.46875 36.6875 C 23.46875 35.816406 22.761719 35.113281 21.894531 35.113281 C 21.105469 35.113281 20.457031 35.691406 20.339844 36.445312 L 13.226562 37.429688 C 12.871094 36.25 11.777344 35.394531 10.484375 35.394531 C 9.910156 35.394531 9.378906 35.5625 8.929688 35.851562 C 7.949219 34.605469 7.109375 33.246094 6.4375 31.789062 C 6.855469 31.589844 7.191406 31.253906 7.398438 30.839844 L 11.785156 31.941406 C 11.785156 31.960938 11.785156 31.980469 11.785156 32 C 11.785156 33.15625 12.722656 34.097656 13.878906 34.097656 C 15.035156 34.097656 15.972656 33.15625 15.972656 32 C 15.972656 30.84375 15.035156 29.90625 13.878906 29.90625 C 13.777344 29.90625 13.679688 29.914062 13.582031 29.929688 L 12.726562 27.652344 L 11.882812 27.96875 L 12.738281 30.246094 C 12.425781 30.449219 12.171875 30.730469 12.003906 31.066406 L 7.617188 29.96875 C 7.617188 29.949219 7.617188 29.925781 7.617188 29.90625 C 7.617188 28.75 6.679688 27.8125 5.523438 27.8125 C 4.367188 27.8125 3.429688 28.75 3.429688 29.90625 C 3.429688 31.0625 4.367188 32 5.523438 32 C 5.527344 32 5.53125 32 5.535156 32 C 6.246094 33.585938 7.15625 35.082031 8.25 36.464844 C 7.855469 36.957031 7.617188 37.582031 7.617188 38.261719 C 7.617188 39.84375 8.902344 41.125 10.484375 41.125 C 11.382812 41.125 12.183594 40.714844 12.710938 40.066406 L 16.203125 42.085938 C 16.175781 42.203125 16.160156 42.324219 16.160156 42.449219 C 16.160156 43.320312 16.863281 44.023438 17.734375 44.023438 C 18.601562 44.023438 19.308594 43.320312 19.308594 42.449219 C 19.308594 41.582031 18.601562 40.875 17.734375 40.875 C 17.316406 40.875 16.9375 41.039062 16.65625 41.304688 L 13.160156 39.289062 C 13.277344 38.984375 13.339844 38.660156 13.347656 38.320312 L 20.460938 37.335938 C 20.710938 37.882812 21.257812 38.261719 21.894531 38.261719 C 22.019531 38.261719 22.140625 38.242188 22.261719 38.214844 L 24.1875 41.539062 C 23.589844 42.027344 23.191406 42.753906 23.136719 43.570312 C 22.058594 43.476562 21.003906 43.296875 19.980469 43.039062 C 19.902344 43.34375 19.761719 43.625 19.574219 43.867188 C 20.761719 44.175781 21.980469 44.382812 23.21875 44.480469 C 23.539062 45.71875 24.660156 46.628906 25.996094 46.628906 C 27.433594 46.628906 28.621094 45.574219 28.832031 44.195312 C 30.644531 43.863281 32.402344 43.296875 34.070312 42.503906 " fill-opacity="1" fill-rule="nonzero"/></g></svg>